<!-- icon666.com - MILLIONS OF FREE VECTOR ICONS --><svg viewBox="0 -11 405.33333 405" xmlns="http://www.w3.org/2000/svg"><path d="m149.332031 170.375c.007813 7.164062.722657 14.308594 2.132813 21.332031h-2.132813c-42.207031.3125-78.296875-30.277343-84.90625-71.964843-6.613281-41.6875 18.246094-81.945313 58.480469-94.703126 40.230469-12.761718 83.75 5.808594 102.375 43.683594-44.929688 13.476563-75.761719 54.746094-75.949219 101.652344zm0 0" fill="#90caf9"></path><path d="m341.332031 170.375c0 47.128906-38.203125 85.332031-85.332031 85.332031s-85.332031-38.203125-85.332031-85.332031 38.203125-85.332031 85.332031-85.332031 85.332031 38.203125 85.332031 85.332031zm0 0" fill="#90caf9"></path><path d="m196.800781 259.015625c-24.796875 5.90625-47 19.722656-63.253906 39.359375h-111.574219c5.46875-48.550781 46.5-85.269531 95.359375-85.332031h41.066407c8.160156 18.667969 21.480468 34.621093 38.402343 45.972656zm0 0" fill="#42a5f5"></path><path d="m383.464844 362.375h-254.824219c5.46875-48.550781 46.5-85.269531 95.359375-85.332031h64c48.867188.089843 89.914062 36.78125 95.464844 85.332031zm0 0" fill="#42a5f5"></path><path d="m315.199219 259.015625c39.09375-26.066406 56.511719-74.65625 42.882812-119.625-13.628906-44.964844-55.09375-75.707031-102.082031-75.683594-3.109375.15625-6.207031.476563-9.28125.960938-17.863281-41.765625-60.292969-67.566407-105.59375-64.210938-45.304688 3.355469-83.46875 35.125-94.984375 79.066407-11.515625 43.941406 6.160156 90.347656 43.992187 115.492187-52.800781 12.589844-90.0742182 59.746094-90.132812 114.027344.015625 5.882812 4.78125 10.648437 10.667969 10.664062h108.90625c-8.488281 16.496094-12.914063 34.78125-12.90625 53.335938.015625 5.882812 4.78125 10.648437 10.664062 10.664062h277.335938c5.882812-.015625 10.648437-4.78125 10.664062-10.664062-.054687-54.28125-37.332031-101.4375-90.132812-114.027344zm-59.199219-173.972656c47.128906 0 85.332031 38.203125 85.332031 85.332031s-38.203125 85.332031-85.332031 85.332031-85.332031-38.203125-85.332031-85.332031c.0625-47.101562 38.230469-85.269531 85.332031-85.332031zm-192 21.332031c-.183594-39.621094 27.050781-74.105469 65.632812-83.109375 38.582032-9.007813 78.265626 9.851563 95.648438 45.457031-44.929688 13.476563-75.761719 54.746094-75.949219 101.652344.007813 7.164062.722657 14.308594 2.132813 21.332031h-2.132813c-47.101562-.0625-85.269531-38.230469-85.332031-85.332031zm-42.027344 192c5.46875-48.550781 46.5-85.269531 95.359375-85.332031h41.066407c8.160156 18.667969 21.480468 34.621093 38.402343 45.972656-24.796875 5.90625-47 19.722656-63.253906 39.359375zm106.667969 64c5.46875-48.550781 46.5-85.269531 95.359375-85.332031h64c48.867188.089843 89.914062 36.78125 95.464844 85.332031zm0 0" fill="#1976d2"></path></svg>