<!-- icon666.com - MILLIONS OF FREE VECTOR ICONS --><svg id="svg178" viewBox="0 0 512 512" xmlns="http://www.w3.org/2000/svg" xmlns:dc="http://purl.org/dc/elements/1.1/" xmlns:cc="http://creativecommons.org/ns#" xmlns:rdf="http://www.w3.org/1999/02/22-rdf-syntax-ns#" xmlns:svg="http://www.w3.org/2000/svg" xmlns:sodipodi="http://sodipodi.sourceforge.net/DTD/sodipodi-0.dtd" xmlns:inkscape="http://www.inkscape.org/namespaces/inkscape" inkscape:version="1.0.1 (3bc2e813f5, 2020-09-07)" sodipodi:docname="home.svg"><g id="g3000" fill-rule="evenodd" transform="matrix(1.002 0 0 1.002 -.457 -.504)" inkscape:label="g"><path id="rect2169" d="m242.86524 22.811256c-79.52129 65.948575-159.041958 131.897874-238.5625649 197.847254-7.5154008 6.61697-3.47879206 18.35385 7.4300399 18.35385h63.928364v230.30131c0 13.54758 10.907162 24.4536 24.456151 24.4536h89.96178v-166.88453c-.0005-9.02066 7.3114-16.33347 16.33205-16.33423h99.17377c9.02065.00076 16.33255 7.31357 16.33205 16.33423v166.88453h89.96178c13.549 0 24.45615-10.90601 24.45615-24.4536v-230.30131h63.92836c10.90883 0 14.94545-11.73688 7.43004-18.35385-79.52036-65.94967-159.04153-131.898388-238.56256-197.847254-3.35546-2.79354-7.71196-4.541904-13.1327-4.541919s-9.77725 1.748385-13.13271 4.541919z" fill="#1e90ff" stroke-width="1.019" inkscape:label="path1" sodipodi:nodetypes="ccscssccccccsscscccc"></path><path id="path939" d="m256 17.818359v292.833981h49.67578c9.03682.00077 16.36183 7.32746 16.36133 16.36524v167.20117h90.12305c13.57329 0 24.5-10.9267 24.5-24.5v-230.73828h64.04296c10.92839 0 14.97225-11.75915 7.44336-18.38867-79.66291-66.07481-159.32664-132.148662-238.99023-198.222659-3.36148-2.798841-7.72579-4.550767-13.15625-4.550782z" fill="#0584ff" stroke-width="1.021" transform="matrix(.998 0 0 .998 .456 .485)" inkscape:label="path1"></path></g></svg>